<?xml version="1.0" encoding="utf-8"?>
<!-- Generator: Adobe Illustrator 16.0.0, SVG Export Plug-In . SVG Version: 6.00 Build 0)  -->
<!DOCTYPE svg PUBLIC "-//W3C//DTD SVG 1.0//EN" "http://www.w3.org/TR/2001/REC-SVG-20010904/DTD/svg10.dtd">
<svg version="1.0" id="Layer_1" xmlns="http://www.w3.org/2000/svg" xmlns:xlink="http://www.w3.org/1999/xlink" x="0px" y="0px"
	 width="100px" height="100px" viewBox="0 0 100 100" enable-background="new 0 0 100 100" xml:space="preserve">
<path d="M60,50c-4.597,0-8.333-3.739-8.333-8.333v-4.546c-9.729-0.988-19.523-0.239-28.333,2.046L19.206,50H10v5l6.667,1.667
	c17.78,4.609,36.849,4.277,53.333,0L76.667,55v-5H60z"/>
<path d="M86.667,23.333h-3.334V20c0-5.524-4.479-10-10-10c-5.523,0-10,4.476-10,10v3.333H60c-1.833,0-3.333,1.5-3.333,3.333v15
	C56.667,43.5,58.167,45,60,45h26.667C88.499,45,90,43.5,90,41.667v-15C90,24.834,88.499,23.333,86.667,23.333z M75.833,38.333h-5V30
	h5V38.333z M78.333,23.333h-10V20c0-2.764,2.236-5,5-5s5,2.236,5,5V23.333z"/>
<path d="M74.817,63.894l-1.881-2.822l-1.68,0.436C62.321,63.825,52.92,65,43.314,65c-9.574,0-18.958-1.175-27.904-3.493l-1.68-0.436
	l-1.881,2.822C10.833,65.42,10,68.167,10,70v20h6.667L20,83.333h46.667L70,90h6.667V70C76.667,68.167,75.833,65.42,74.817,63.894z
	 M26.667,76.667h-8.333v-5h8.333V76.667z M53.333,76.667h-20v-5h20V76.667z M68.333,76.667H60v-5h8.333V76.667z"/>
</svg>
